<?xml version="1.0" encoding="utf-8"?>
<!-- Generator: Adobe Illustrator 19.0.0, SVG Export Plug-In . SVG Version: 6.00 Build 0)  -->
<svg version="1.1" id="Layer_1" xmlns="http://www.w3.org/2000/svg" xmlns:xlink="http://www.w3.org/1999/xlink" x="0px" y="0px"
	 viewBox="0 0 800 800" style="enable-background:new 0 0 800 800;" xml:space="preserve">
<style type="text/css">
	.st0{fill:#EFA49A;}
	.st1{fill:none;stroke:#FF4F00;stroke-width:11;stroke-miterlimit:10;}
	.st2{opacity:0.4;fill:url(#XMLID_19_);}
	.st3{opacity:0.6;}
	.st4{fill:none;stroke:#FFFFFF;stroke-miterlimit:10;}
	.st5{fill:none;stroke:#FFFFFF;stroke-miterlimit:10;stroke-dasharray:3.1569,3.1569;}
	.st6{fill:#FF4F00;}
	.st7{fill:#FFDB00;}
	.st8{fill:#FFFFFF;}
	.st9{fill:#1B0F0D;}
	.st10{fill:#FF0000;}
</style>
<g id="XMLID_2_">
	<path id="XMLID_57_" class="st0" d="M593.4,324c1.4,2.3,2.2,4.8,2.8,7.5c4.2-2.9,7.7-6.8,11.9-9.7c2.7-1.8,5,2.6,2.4,4.4
		c-2.7,1.9-5.1,4.2-7.5,6.3c0.1,0,0.2,0,0.2,0c1.5,0,3-0.1,4.4-0.2c0.6,0,1.2-0.1,1.8-0.1c0.8-0.1,1.2-0.6,0.3,0.2
		c2.4-2.1,5.9,1.5,3.5,3.6c-1.8,1.6-5.3,1.3-7.5,1.4c-1.8,0.1-3.6,0.1-5.4,0.1c3.9,2.7,7.5,5.9,11,9.1c2.4,2.2-1.3,5.7-3.6,3.5
		c-4.4-4.1-8.9-8-14.2-11c-0.2-0.1-0.3-0.2-0.5-0.4c-0.6-0.4-1-1.1-1.1-2c-0.2-3.5-1-7.3-2.9-10.4
		C587.4,323.6,591.8,321.3,593.4,324z"/>
	<line id="XMLID_56_" class="st1" x1="419.9" y1="413.8" x2="592.9" y2="337.8"/>
	<rect id="XMLID_55_" x="404.5" y="386.9" class="st0" width="14.1" height="37"/>
	<linearGradient id="XMLID_19_" gradientUnits="userSpaceOnUse" x1="411.7901" y1="405.9524" x2="411.7901" y2="380.9911">
		<stop  offset="0" style="stop-color:#FFFFFF"/>
		<stop  offset="0.289" style="stop-color:#F2F2F2"/>
		<stop  offset="1" style="stop-color:#292627"/>
		<stop  offset="1" style="stop-color:#000000"/>
	</linearGradient>
	<rect id="XMLID_54_" x="404.7" y="381" class="st2" width="14.1" height="25"/>
	<path id="XMLID_53_" class="st0" d="M526.1,297.8c0,50.6-41.2,91.7-92,91.7h-44.3c-50.8,0-92-41-92-91.7v-10.7
		c0-50.6,41.2-91.7,92-91.7h44.3c50.8,0,92,41,92,91.7V297.8z"/>
	<path id="XMLID_41_" class="st0" d="M285.3,304c0,5.2,4.2,9.5,9.5,9.5l0,0c5.2,0,9.5-4.2,9.5-9.5v-6.3c0-5.2-4.2-9.5-9.5-9.5l0,0
		c-5.2,0-9.5,4.2-9.5,9.5V304z"/>
	<g id="XMLID_35_" class="st3">
		<g id="XMLID_40_">
			<line id="XMLID_60_" class="st4" x1="385.7" y1="487.8" x2="387.2" y2="487.8"/>
			<line id="XMLID_59_" class="st5" x1="390.3" y1="487.8" x2="439.3" y2="487.8"/>
			<line id="XMLID_58_" class="st4" x1="440.8" y1="487.8" x2="442.3" y2="487.8"/>
		</g>
	</g>
	<g id="XMLID_17_">
		<path id="XMLID_18_" class="st6" d="M423.5,403c-1.9,5.9-6.5,10-11.9,10c-5.4,0-10-4.2-11.9-10h-12.1v90.1h50V403H423.5z"/>
	</g>
	<path id="XMLID_16_" class="st0" d="M243.2,330.6c-1.4,2.3-2.2,4.8-2.8,7.5c-4.2-2.9-7.7-6.8-11.9-9.7c-2.7-1.8-5,2.6-2.4,4.4
		c2.7,1.9,5.1,4.2,7.5,6.3c-0.1,0-0.2,0-0.2,0c-1.5,0-3-0.1-4.4-0.2c-0.6,0-1.2-0.1-1.8-0.1c-0.8-0.1-1.2-0.6-0.3,0.2
		c-2.4-2.1-5.9,1.5-3.5,3.6c1.8,1.6,5.3,1.3,7.5,1.4c1.8,0.1,3.6,0.1,5.4,0.1c-3.9,2.7-7.5,5.9-11,9.1c-2.4,2.2,1.3,5.7,3.6,3.5
		c4.4-4.1,8.9-8,14.2-11c0.2-0.1,0.3-0.2,0.5-0.4c0.6-0.4,1-1.1,1.1-2c0.2-3.5,1-7.3,2.9-10.4C249.3,330.2,244.9,327.8,243.2,330.6z
		"/>
	<line id="XMLID_15_" class="st1" x1="416.2" y1="421.3" x2="243.2" y2="345.3"/>
	<path id="XMLID_3_" class="st7" d="M411.6,413c5.4,0,10-4.2,11.9-10h-23.8C401.6,408.9,406.2,413,411.6,413z"/>
</g>
<path id="XMLID_9_" class="st0" d="M1259,430.3c0,50.6-41.2,91.7-92,91.7h-44.3c-50.8,0-92-41-92-91.7v-10.7
	c0-50.6,41.2-91.7,92-91.7h44.3c50.8,0,92,41,92,91.7V430.3z"/>
<circle id="XMLID_42_" class="st8" cx="391.1" cy="288" r="22.4"/>
<circle id="XMLID_38_" class="st8" cx="451.5" cy="287.5" r="22.4"/>
<circle id="XMLID_37_" class="st9" cx="391.2" cy="288.8" r="8.5"/>
<circle id="XMLID_36_" class="st9" cx="452.7" cy="287.8" r="8.5"/>
<g id="XMLID_6_">
	<path id="XMLID_14_" class="st9" d="M249,316.9c-0.1,0-0.2,0-0.2-0.1c-6.4-1.5-10.5-7.7-9-13.7c0.5-2.2,13.3-54.2,67.3-91.6
		c55.2-38.3,151.8-10.2,155.9-9c6.3,1.9,10,8.3,8.2,14.2c-1.8,6-8.5,9.3-14.8,7.4c-0.5-0.1-23.2-6.8-51.5-9.1
		c-45.6-3.8-70.5,6-83.4,14.9c-46.7,32.3-58.3,78.2-58.4,78.7C261.5,314.6,255.3,318.2,249,316.9z"/>
	<path id="XMLID_13_" class="st9" d="M240.8,248.8c-1.7-0.3-3.3-1-4.7-2c-5-3.6-6.1-10.3-2.4-14.9c1.7-2.2,43.2-53.3,94.5-59
		c60.7-6.7,109.8,29.4,111.9,30.9c5,3.7,5.9,10.4,2.1,15c-3.8,4.6-10.9,5.3-15.9,1.6c-0.4-0.3-43.8-31.9-94.8-26.3
		c-21.4,2.4-41.7,15.8-54.9,26.7c-14.9,12.3-24.5,24.1-24.6,24.2C249.3,248.2,244.9,249.6,240.8,248.8z"/>
	<path id="XMLID_12_" class="st9" d="M283.3,341.7c-7.5-0.9-13-6.6-12.3-12.7c0.9-7.6,10.4-74.8,52.5-100.9
		c51.5-31.9,96.7-21.3,98.6-20.8l-1.2,15.8l-2.3-0.1c-1.4-0.3-37.5-1.9-77.7,23c-13.1,8.1-24.4,24.3-32.7,46.9
		c-7.5,20.3-9.8,38.7-9.9,39.5C297.5,338.4,290.8,342.6,283.3,341.7z"/>
	<path id="XMLID_11_" class="st9" d="M409.7,220.6c0.3-0.1,35.2-8.9,84.2,12.1c22.1,9.5,38.2,26.2,47.9,38.5
		c11.2,14.4,16.9,26.8,17.7,28.9c2,6.6,9.2,10.6,16.3,8.8c7.2-1.8,11.5-8.7,9.7-15.5c-2-7.3-27.4-61.2-80.4-83.9
		c-58.7-25.1-101-13.8-102.8-13.3L409.7,220.6L409.7,220.6z"/>
	<path id="XMLID_10_" class="st9" d="M577.6,254.3c-3.5-0.1-7-1.5-9.6-4.1c-0.8-0.8-51.2-49.5-99.9-48.2
		c-39.3,1.1-48.3,11-49.3,12.3c-2.7,6.2-10,9.6-16.9,7.6c-7.4-2.1-11.6-9.5-9.4-16.5c0.7-2.2,3.9-10.1,16-17.1
		c13.3-7.8,33.1-12,58.8-12.7c61.4-1.6,118.6,54,121,56.4c5.4,5.3,5.2,13.7-0.4,18.7C584.9,253.2,581.2,254.4,577.6,254.3z"/>
	<path id="XMLID_8_" class="st9" d="M343.3,321c-4.8-0.3-9.1-3.2-10.8-7.8c-0.5-1.4-12.3-34.4,5.7-72.7
		c10.6-22.7,39.7-36.3,86.5-40.6c32.5-3,61.9-0.3,63.1-0.2c6.7,0.6,11.7,6.3,11,12.6c-0.6,6.4-6.6,11-13.3,10.4
		c-27.9-2.6-110.7-3.1-124.9,27.2c-14.1,30.1-5.1,55.5-5,55.7c2.2,6-1.2,12.6-7.5,14.7C346.4,320.9,344.8,321.1,343.3,321z"/>
	<path id="XMLID_7_" class="st9" d="M499.1,297.4c-6.4-0.2-11.7-4.9-12.2-11c0-0.2-1.7-17-11.7-33.3c-12.7-20.6-33-31.3-60.3-31.7
		c-37.4-0.5-65,19.5-65.3,19.7c-5.5,4.1-13.5,3.2-17.8-2c-4.4-5.2-3.4-12.8,2.1-16.9c1.4-1,34.6-25.4,81.3-24.8
		c46.4,0.6,70.5,24.6,82.5,44.5c12.6,21,14.5,41.7,14.6,42.6c0.6,6.6-4.6,12.4-11.6,12.9C500,297.4,499.6,297.4,499.1,297.4z"/>
</g>
<g id="XMLID_4_">
	<path id="XMLID_5_" class="st8" d="M419.4,344.6c11.5,0,21.4-7,25.1-16.7h-50.1C398,337.6,407.8,344.6,419.4,344.6z"/>
</g>
<path class="st0" d="M807.7,707.1c0,5.2,4.2,9.5,9.5,9.5l0,0c5.2,0,9.5-4.2,9.5-9.5v-6.3c0-5.2-4.2-9.5-9.5-9.5l0,0
	c-5.2,0-9.5,4.2-9.5,9.5V707.1z"/>
<path id="XMLID_44_" class="st7" d="M412.6,425.4l6.1,10.3c0.1,0.2,0.4,0.4,0.6,0.4l11.9,0.8c0.7,0,1,0.8,0.5,1.3l-7.9,9
	c-0.2,0.2-0.2,0.5-0.2,0.7l3,11.6c0.2,0.6-0.5,1.2-1.1,0.9l-11-4.7c-0.2-0.1-0.5-0.1-0.7,0.1l-10.1,6.4c-0.6,0.4-1.3-0.1-1.2-0.7
	l1.1-11.9c0-0.3-0.1-0.5-0.3-0.7l-9.2-7.6c-0.5-0.4-0.3-1.2,0.3-1.4l11.7-2.7c0.3-0.1,0.5-0.2,0.6-0.5l4.4-11.1
	C411.4,424.9,412.2,424.8,412.6,425.4z"/>
<path id="XMLID_43_" class="st10" d="M415.5,436.9l0.8,4.5c0,0.1,0.1,0.2,0.2,0.2l4.2,1.9c0.2,0.1,0.2,0.4,0,0.5l-4,2.1
	c-0.1,0-0.1,0.1-0.2,0.2l-0.5,4.5c0,0.3-0.3,0.4-0.5,0.2l-3.3-3.2c-0.1-0.1-0.2-0.1-0.3-0.1l-4.5,0.9c-0.2,0.1-0.4-0.2-0.3-0.4
	l2-4.1c0-0.1,0-0.2,0-0.3l-2.3-4c-0.1-0.2,0.1-0.5,0.3-0.5l4.5,0.6c0.1,0,0.2,0,0.3-0.1l3.1-3.4
	C415.2,436.5,415.5,436.6,415.5,436.9z"/>
</svg>
